{"accessors":[{"bufferView":0,"componentType":5123,"count":1104,"max":[479],"min":[0],"type":"SCALAR"},{"bufferView":1,"componentType":5126,"count":480,"max":[19.339519500732422,19.27017593383789,42.57148361206055],"min":[-19.339519500732422,-19.27017593383789,42.24398422241211],"type":"VEC3"},{"bufferView":2,"componentType":5126,"count":480,"max":[1,1,1],"min":[-1,-1,-1],"type":"VEC3"},{"bufferView":3,"componentType":5126,"count":480,"max":[1,1,0.00000997868937702151,1],"min":[-1,-1,-0.000009453892744204495,1],"type":"VEC4"},{"bufferView":4,"componentType":5126,"count":480,"max":[0.9999995827674866,1],"min":[0,0],"type":"VEC2"},{"bufferView":5,"componentType":5121,"count":24,"max":[8],"min":[0],"type":"SCALAR"},{"bufferView":6,"componentType":5126,"count":9,"max":[23.633073806762695,23.633073806762695,43.38520050048828],"min":[-23.633073806762695,-23.633073806762695,43.38520050048828],"type":"VEC3"},{"bufferView":7,"componentType":5126,"count":9,"max":[0,0,1],"min":[0,0,1],"type":"VEC3"},{"bufferView":8,"componentType":5126,"count":9,"max":[1,0,0,1],"min":[1,0,0,1],"type":"VEC4"},{"bufferView":9,"componentType":5126,"count":9,"max":[1,1],"min":[0,0],"type":"VEC2"},{"bufferView":10,"componentType":5121,"count":24,"max":[8],"min":[0],"type":"SCALAR"},{"bufferView":11,"componentType":5126,"count":9,"max":[23.633073806762695,1.6328418448612915e-14,56.75183868408203],"min":[-23.633073806762695,1.6328418448612915e-14,-10.95584487915039],"type":"VEC3"},{"bufferView":12,"componentType":5126,"count":9,"max":[0,1,0],"min":[0,1,0],"type":"VEC3"},{"bufferView":13,"componentType":5126,"count":9,"max":[1,0,0,1],"min":[1,0,0,1],"type":"VEC4"},{"bufferView":14,"componentType":5126,"count":9,"max":[1,1],"min":[0,0],"type":"VEC2"},{"bufferView":15,"componentType":5121,"count":24,"max":[8],"min":[0],"type":"SCALAR"},{"bufferView":16,"componentType":5126,"count":9,"max":[0,23.633073806762695,56.75183868408203],"min":[0,-23.633073806762695,-10.955851554870605],"type":"VEC3"},{"bufferView":17,"componentType":5126,"count":9,"max":[-1,0,0],"min":[-1,0,0],"type":"VEC3"},{"bufferView":18,"componentType":5126,"count":9,"max":[0,-0.9999999403953552,0,1],"min":[0,-1,0,1],"type":"VEC4"},{"bufferView":19,"componentType":5126,"count":9,"max":[1,1],"min":[0,0],"type":"VEC2"},{"bufferView":20,"componentType":5123,"count":8136,"max":[1465],"min":[0],"type":"SCALAR"},{"bufferView":21,"componentType":5126,"count":1466,"max":[27.97179412841797,27.97179412841797,43.44219970703125],"min":[-27.97179412841797,-27.97179412841797,-29.568771362304688],"type":"VEC3"},{"bufferView":22,"componentType":5126,"count":1466,"max":[1,1,1],"min":[-1,-1,-0.999969482421875],"type":"VEC3"},{"bufferView":23,"componentType":5126,"count":1466,"max":[1,1,0.925596296787262,1],"min":[-1,-1,-0.9254805445671082,1],"type":"VEC4"},{"bufferView":24,"componentType":5126,"count":1466,"max":[0.9937332272529602,0.9887745380401611],"min":[0.011516392230987549,0.26407390832901],"type":"VEC2"},{"bufferView":25,"componentType":5126,"count":1466,"max":[1,1,1,1],"min":[1,1,1,1],"type":"VEC4"}],"asset":{"generator":"Khronos Blender glTF 2.0 exporter","version":"2.0"},"bufferViews":[{"buffer":0,"byteLength":2208,"byteOffset":0,"target":34963},{"buffer":0,"byteLength":5760,"byteOffset":2208,"target":34962},{"buffer":0,"byteLength":5760,"byteOffset":7968,"target":34962},{"buffer":0,"byteLength":7680,"byteOffset":13728,"target":34962},{"buffer":0,"byteLength":3840,"byteOffset":21408,"target":34962},{"buffer":0,"byteLength":24,"byteOffset":25248,"target":34963},{"buffer":0,"byteLength":108,"byteOffset":25272,"target":34962},{"buffer":0,"byteLength":108,"byteOffset":25380,"target":34962},{"buffer":0,"byteLength":144,"byteOffset":25488,"target":34962},{"buffer":0,"byteLength":72,"byteOffset":25632,"target":34962},{"buffer":0,"byteLength":24,"byteOffset":25704,"target":34963},{"buffer":0,"byteLength":108,"byteOffset":25728,"target":34962},{"buffer":0,"byteLength":108,"byteOffset":25836,"target":34962},{"buffer":0,"byteLength":144,"byteOffset":25944,"target":34962},{"buffer":0,"byteLength":72,"byteOffset":26088,"target":34962},{"buffer":0,"byteLength":24,"byteOffset":26160,"target":34963},{"buffer":0,"byteLength":108,"byteOffset":26184,"target":34962},{"buffer":0,"byteLength":108,"byteOffset":26292,"target":34962},{"buffer":0,"byteLength":144,"byteOffset":26400,"target":34962},{"buffer":0,"byteLength":72,"byteOffset":26544,"target":34962},{"buffer":0,"byteLength":16272,"byteOffset":26616,"target":34963},{"buffer":0,"byteLength":17592,"byteOffset":42888,"target":34962},{"buffer":0,"byteLength":17592,"byteOffset":60480,"target":34962},{"buffer":0,"byteLength":23456,"byteOffset":78072,"target":34962},{"buffer":0,"byteLength":11728,"byteOffset":101528,"target":34962},{"buffer":0,"byteLength":23456,"byteOffset":113256,"target":34962}],"buffers":[{"byteLength":136712,"uri":"data:application/octet-stream;base64,"}],"cameras":[{"name":"Camera","perspective":{"aspectRatio":1.7777777777777777,"yfov":0.5033799372418416,"zfar":100,"znear":0.10000000149011612},"type":"perspective"}],"images":[{"uri":"data:image/png;base64,"},{"uri":"data:image/png;base64,"},{"uri":"data:image/png;base64,"},{"uri":"data:image/png;base64,"}],"materials":[{"name":"Flame_Bottom__Material","pbrMetallicRoughness":{"baseColorFactor":[0.800000011920929,0.800000011920929,0.800000011920929,1],"baseColorTexture":{"index":0},"metallicFactor":0},"alphaMode":"BLEND"},{"name":"Flame_Side__Material","pbrMetallicRoughness":{"baseColorFactor":[0.800000011920929,0.800000011920929,0.800000011920929,1],"baseColorTexture":{"index":1},"metallicFactor":0},"alphaMode":"BLEND"},{"name":"MetalWire_blinn","pbrMetallicRoughness":{"baseColorFactor":[0.03773250934083028,0.018506142772825696,0,1],"metallicFactor":0}},{"name":"PaperLantern_phong","normalTexture":{"index":3},"doubleSided":true,"pbrMetallicRoughness":{"baseColorFactor":[0.800000011920929,0.800000011920929,0.800000011920929,1],"baseColorTexture":{"index":2},"metallicFactor":0}}],"meshes":[{"name":"Untitled","primitives":[{"attributes":{"NORMAL":2,"POSITION":1,"TANGENT":3,"TEXCOORD_0":4},"indices":0,"material":2}]},{"name":"Untitled.001","primitives":[{"attributes":{"NORMAL":7,"POSITION":6,"TANGENT":8,"TEXCOORD_0":9},"indices":5,"material":0}]},{"name":"Untitled.002","primitives":[{"attributes":{"NORMAL":12,"POSITION":11,"TANGENT":13,"TEXCOORD_0":14},"indices":10,"material":1}]},{"name":"Untitled.003","primitives":[{"attributes":{"NORMAL":17,"POSITION":16,"TANGENT":18,"TEXCOORD_0":19},"indices":15,"material":1}]},{"name":"Untitled.004","primitives":[{"attributes":{"COLOR_0":25,"NORMAL":22,"POSITION":21,"TANGENT":23,"TEXCOORD_0":24},"indices":20,"material":3}]}],"nodes":[{"camera":0,"name":"Correction_Camera","rotation":[-0.7071067690849304,0,0,0.7071067690849304]},{"children":[0],"name":"Camera","rotation":[0.483536034822464,0.33687159419059753,-0.20870360732078552,0.7804827094078064],"translation":[7.481131553649902,5.34366512298584,6.5076398849487305]},{"children":[3,4,5],"name":"Flame"},{"mesh":1,"name":"Flame_Bottom"},{"mesh":3,"name":"Flame_SideA"},{"mesh":2,"name":"Flame_SideB"},{"name":"Hemi","translation":[-0.36246126890182495,0.2509586215019226,-0.6948871612548828]},{"name":"Lamp","rotation":[0.16907575726509094,0.7558802962303162,-0.27217137813568115,0.570947527885437],"scale":[1,1,0.9999999403953552],"translation":[4.076245307922363,5.903861999511719,-1.0054539442062378]},{"mesh":4,"name":"Latern_Paper"},{"children":[2,8,10],"name":"PaperLantern","rotation":[0.7071068286895752,0,0,0.7071067094802856],"scale":[0.009785227477550507,0.009785227477550507,0.009785227477550507],"translation":[0.0028904229402542114,0.004629373550415039,0.00009493296965956688]},{"mesh":0,"name":"WireBase"}],"samplers":[{}],"scene":0,"scenes":[{"name":"Scene","nodes":[6,9,7,1]}],"textures":[{"sampler":0,"source":0},{"sampler":0,"source":1},{"sampler":0,"source":2},{"sampler":0,"source":3}]}
